<svg xmlns="http://www.w3.org/2000/svg" viewBox="0 0 300 216"><defs><style>.cls-1,.cls-2,.cls-3,.cls-4{fill:#656565;stroke:#ff6bb9;stroke-miterlimit:10;}.cls-1{stroke-width:3px;}.cls-2{stroke-width:0.75px;}.cls-3{stroke-width:1.2px;}.cls-4{stroke-width:1.5px;}</style></defs><title>Artboard 7</title><g id="Text_Neon_Brush" data-name="Text Neon Brush"><polygon class="cls-1" points="15.5 197.5 97 197.5 278.5 197.5 278.5 110.5 15.5 110.5 15.5 197.5"/><rect class="cls-1" x="193.5" y="129.5" width="72" height="57"/><line class="cls-1" x1="180.56" y1="110.5" x2="180.56" y2="197.5"/><line class="cls-1" x1="91.04" y1="197.5" x2="91.5" y2="110.5"/><rect class="cls-1" x="104.5" y="121.5" width="63" height="65"/><line class="cls-1" x1="167.5" y1="140.66" x2="104.5" y2="140.5"/><line class="cls-1" x1="168" y1="157.5" x2="105" y2="157.34"/><line class="cls-1" x1="127.5" y1="131.5" x2="143.5" y2="131.5"/><line class="cls-1" x1="128" y1="149.5" x2="144" y2="149.5"/><line class="cls-1" x1="15.5" y1="126.89" x2="91.04" y2="126.89"/><circle class="cls-2" cx="26" cy="118" r="2.5"/><circle class="cls-2" cx="39" cy="118" r="2.5"/><circle class="cls-2" cx="53" cy="118" r="2.5"/><circle class="cls-2" cx="68" cy="118" r="2.5"/><circle class="cls-2" cx="82" cy="118" r="2.5"/><circle class="cls-3" cx="197.5" cy="119.5" r="4"/><circle class="cls-3" cx="219.5" cy="119.5" r="4"/><circle class="cls-3" cx="241.5" cy="119.5" r="4"/><circle class="cls-3" cx="262.5" cy="119.5" r="4"/><rect class="cls-4" x="197.5" y="97.5" width="22" height="12"/><line class="cls-4" x1="231.5" y1="97.5" x2="220" y2="97.5"/><polygon class="cls-1" points="205.5 61.5 262.5 61.5 246.5 44.5 246.5 12.5 219.5 12.5 219.5 44.5 205.5 61.5"/><rect class="cls-1" x="15.5" y="46.5" width="165" height="15"/><line class="cls-1" x1="15.5" y1="11.5" x2="15.5" y2="46.5"/><line class="cls-1" x1="180.5" y1="12.5" x2="180.5" y2="46.5"/></g></svg>