<svg xmlns="http://www.w3.org/2000/svg" viewBox="0 0 300 300"><defs><style>.cls-1,.cls-2,.cls-3{fill:#3d4447;}.cls-1,.cls-2,.cls-4{stroke:#4d4dff;}.cls-1,.cls-2,.cls-3,.cls-4,.cls-5{stroke-miterlimit:10;}.cls-1{stroke-width:5px;}.cls-2{stroke-width:3px;}.cls-3{stroke:#7070ff;}.cls-4{fill:#cec9c6;stroke-width:2px;}.cls-5{font-size:12px;stroke:#150b00;stroke-width:0.75px;font-family:ArialRoundedMTBold, Arial Rounded MT Bold;}.cls-6{letter-spacing:-0.01em;}.cls-7{letter-spacing:-0.03em;}</style></defs><title>abbey haus </title><g id="Abbey_Haus" data-name="Abbey Haus"><path class="cls-1" d="M149.09,73.71l78,66.6a4,4,0,0,1,1.4,3v80.17a4,4,0,0,1-4,4h-156a4,4,0,0,1-4-4V143.34a4,4,0,0,1,1.4-3l78-66.6A4,4,0,0,1,149.09,73.71ZM64.5,141.5h164m-13.28-11.33-137.44,0M124.5,176.5m62-13"/><polyline class="cls-2" points="132.71 227.57 133 193.5 160 193.5 160 227.57"/><rect class="cls-3" x="154" y="214.5" width="2.5" height="3.5"/><rect class="cls-4" x="78" y="150" width="38" height="27" rx="2"/><rect class="cls-4" x="128" y="150" width="38" height="27" rx="2"/><rect class="cls-4" x="177" y="150" width="38" height="27" rx="2"/><rect class="cls-4" x="78" y="189" width="38" height="27" rx="2"/><rect class="cls-4" x="177" y="189" width="38" height="27" rx="2"/></g><g id="Text_Neon_Brush" data-name="Text Neon Brush"><text class="cls-5" transform="translate(65.18 240.2)">A<tspan class="cls-6" x="8.63" y="0">b</tspan><tspan x="15.97" y="0">b</tspan><tspan class="cls-7" x="23.47" y="0">e</tspan><tspan x="30.29" y="0">y Haus</tspan></text></g></svg>