<svg xmlns="http://www.w3.org/2000/svg" viewBox="0 0 190.89 184.76"><defs><style>.cls-1,.cls-2,.cls-3{fill:#3d4447;}.cls-1,.cls-2,.cls-4{stroke:#4d4dff;}.cls-1,.cls-2,.cls-3,.cls-4,.cls-5{stroke-miterlimit:10;}.cls-1{stroke-width:5px;}.cls-2{stroke-width:3px;}.cls-3{stroke:#7070ff;}.cls-4{fill:#cec9c6;stroke-width:2px;}.cls-5{font-size:12px;stroke:#150b00;stroke-width:0.75px;font-family:ArialRoundedMTBold, Arial Rounded MT Bold;letter-spacing:0.03em;}.cls-6{letter-spacing:0.02em;}.cls-7{letter-spacing:0.03em;}.cls-8{letter-spacing:0.01em;}</style></defs><title>Artboard 3</title><g id="Abbey_Haus" data-name="Abbey Haus"><path class="cls-1" d="M96.64,8.45l78,66.6a4,4,0,0,1,1.4,3v80.18a4,4,0,0,1-4,4H16a4,4,0,0,1-4-4V78.08a4,4,0,0,1,1.4-3l78-66.6A4,4,0,0,1,96.64,8.45ZM12.05,76.25h164M162.77,64.91m-137.44,0,46.72,46.34,62-13"/><polyline class="cls-2" points="80.26 162.31 80.55 128.25 107.55 128.25 107.55 162.31"/><rect class="cls-3" x="101.55" y="149.25" width="2.5" height="3.5"/><rect class="cls-4" x="25.55" y="84.75" width="38" height="27" rx="2"/><rect class="cls-4" x="75.55" y="84.75" width="38" height="27" rx="2"/><rect class="cls-4" x="124.55" y="84.75" width="38" height="27" rx="2"/><rect class="cls-4" x="25.55" y="123.75" width="38" height="27" rx="2"/><rect class="cls-4" x="124.55" y="123.75" width="38" height="27" rx="2"/></g><g id="Text_Neon_Brush" data-name="Text Neon Brush"><text class="cls-5" transform="translate(12 178.95)">A<tspan class="cls-6" x="9.01" y="0">b</tspan><tspan class="cls-7" x="16.74" y="0">b</tspan><tspan class="cls-8" x="24.63" y="0">e</tspan><tspan x="31.83" y="0">y Haus</tspan></text></g></svg>