<svg xmlns="http://www.w3.org/2000/svg" viewBox="0 0 300 300"><defs><style>.cls-1{fill:gray;stroke:#7cff74;stroke-miterlimit:10;stroke-width:3px;}</style></defs><title>abbey haus </title><g id="Text_Neon_Brush" data-name="Text Neon Brush"><path class="cls-1" d="M135.06,139C122,153,108,166,95,180a110.19,110.19,0,0,1-18,2v16H61c1,6-2,11-2,17-1,4-6,6-9,9,1,7,0,16,5,21,4,3,11,2,16,5,1,1,3,0,4-1,29-30,57-58,86-86"/><path class="cls-1" d="M130,116.5a50.49,50.49,0,1,1,24,43A50.5,50.5,0,0,1,130,116.5Z"/><circle class="cls-1" cx="189.5" cy="107.5" r="9"/><line class="cls-1" x1="65.5" y1="248.5" x2="154" y2="160"/></g></svg>