<svg xmlns="http://www.w3.org/2000/svg" viewBox="0 0 213 207"><defs><style>.cls-1{fill:#656565;stroke:#fff200;stroke-miterlimit:10;stroke-width:3px;opacity:0.9;}</style></defs><title>Artboard 5</title><g id="Text_Neon_Brush" data-name="Text Neon Brush"><path class="cls-1" d="M103.06,87C90,101,76,114,63,128a110.19,110.19,0,0,1-18,2v16H29c1,6-2,11-2,17-1,4-6,6-9,9,1,7,0,16,5,21,4,3,11,2,16,5,1,1,3,0,4-1,29-30,57-58,86-86"/><path class="cls-1" d="M98,64.5a50.49,50.49,0,1,1,24,43A50.5,50.5,0,0,1,98,64.5Z"/><circle class="cls-1" cx="157.5" cy="55.5" r="9"/><line class="cls-1" x1="33.5" y1="196.5" x2="122" y2="108"/></g></svg>