<svg xmlns="http://www.w3.org/2000/svg" viewBox="0 0 300 300"><defs><style>.cls-1,.cls-2,.cls-3{fill:gray;stroke:#7cff74;stroke-miterlimit:10;}.cls-1{stroke-width:3px;}.cls-2{stroke-width:0.75px;}.cls-3{stroke-width:1.2px;}</style></defs><title>abbey haus </title><g id="Text_Neon_Brush" data-name="Text Neon Brush"><polygon class="cls-1" points="15.5 268.5 97 268.5 278.5 268.5 278.5 181.5 15.5 181.5 15.5 268.5"/><rect class="cls-1" x="193.5" y="200.5" width="72" height="57"/><line class="cls-1" x1="180.56" y1="181.5" x2="180.56" y2="268.5"/><line class="cls-1" x1="91.04" y1="268.5" x2="91.5" y2="181.5"/><rect class="cls-1" x="104.5" y="192.5" width="63" height="65"/><line class="cls-1" x1="167.5" y1="211.66" x2="104.5" y2="211.5"/><line class="cls-1" x1="168" y1="228.5" x2="105" y2="228.34"/><line class="cls-1" x1="127.5" y1="202.5" x2="143.5" y2="202.5"/><line class="cls-1" x1="128" y1="220.5" x2="144" y2="220.5"/><line class="cls-1" x1="15.5" y1="197.89" x2="91.04" y2="197.89"/><circle class="cls-2" cx="26" cy="189" r="2.5"/><circle class="cls-2" cx="39" cy="189" r="2.5"/><circle class="cls-2" cx="53" cy="189" r="2.5"/><circle class="cls-2" cx="68" cy="189" r="2.5"/><circle class="cls-2" cx="82" cy="189" r="2.5"/><circle class="cls-3" cx="197.5" cy="189.5" r="4"/><circle class="cls-3" cx="219.5" cy="189.5" r="4"/><circle class="cls-3" cx="241.5" cy="189.5" r="4"/><circle class="cls-3" cx="262.5" cy="189.5" r="4"/><rect class="cls-3" x="197.5" y="168.5" width="22" height="12"/><line class="cls-3" x1="231.5" y1="168.5" x2="220" y2="168.5"/><polygon class="cls-3" points="205.5 132.5 262.5 132.5 246.5 115.5 246.5 83.5 219.5 83.5 219.5 115.5 205.5 132.5"/></g></svg>